<?xml version="1.0" encoding="UTF-8"?>
<svg version="1.1" xmlns="http://www.w3.org/2000/svg" width="512" height="512">
<path d="M0 0 C24.65150725 21.48525861 39.67596306 51.36832383 42.20703125 83.99609375 C44.11228783 117.2219098 33.81734805 148.38011526 12.3671875 173.7890625 C11.71363281 174.58957031 11.06007813 175.39007813 10.38671875 176.21484375 C-10.22456536 200.46113856 -41.29126869 214.0955744 -72.63525391 216.64404297 C-105.78653045 219.05077216 -136.98242322 207.73796387 -162.23828125 186.609375 C-186.28272652 165.65902114 -201.75854305 136.67800029 -204.6328125 104.7890625 C-206.66380632 71.63971119 -198.14390219 39.81911658 -176.4453125 14.20703125 C-174.21806653 11.68977929 -171.94079196 9.2323373 -169.6328125 6.7890625 C-168.94703125 6.03882813 -168.26125 5.28859375 -167.5546875 4.515625 C-123.08591715 -42.42363259 -47.5287612 -39.91287661 0 0 Z " fill="#FEFEFE" transform="translate(393.6328125,178.2109375)"/>
<path d="M0 0 C2.109375 1.78125 2.109375 1.78125 4.109375 5.78125 C-0.180625 10.07125 -4.470625 14.36125 -8.890625 18.78125 C-13.890625 16.78125 -13.890625 16.78125 -16.0390625 15.7109375 C-24.15150112 11.86820342 -33.1267508 11.0978574 -41.79296875 13.62890625 C-50.1021481 17.40580596 -56.04128639 23.28266726 -59.890625 31.53125 C-62.89093252 39.60665398 -63.18388063 47.05706767 -60.140625 55.15625 C-55.95279614 64.29067811 -50.05790939 71.23533615 -40.609375 75.0859375 C-32.40021731 77.18540599 -23.5045034 76.95650022 -15.91796875 73.046875 C-15.24894531 72.62921875 -14.57992187 72.2115625 -13.890625 71.78125 C-12.89933594 71.224375 -11.90804687 70.6675 -10.88671875 70.09375 C-7.24030918 67.27931133 -5.85870469 64.64927668 -4.015625 60.53125 C-2.984375 58.30375 -1.953125 56.07625 -0.890625 53.78125 C-10.460625 53.78125 -20.030625 53.78125 -29.890625 53.78125 C-29.890625 47.51125 -29.890625 41.24125 -29.890625 34.78125 C-13.390625 34.78125 3.109375 34.78125 20.109375 34.78125 C20.109375 54.50356168 19.47762433 69.0318115 6.4375 83.65625 C-2.33984079 92.05849076 -13.86805559 96.87325175 -25.890625 97.78125 C-26.71949219 97.85085938 -27.54835938 97.92046875 -28.40234375 97.9921875 C-42.64201944 98.5883736 -55.81872805 93.05517459 -66.703125 84.09375 C-77.0396573 74.19343833 -83.8109177 60.98268794 -84.37841797 46.58789062 C-84.47019843 31.12471887 -79.04750851 17.22650511 -68.30078125 6.03125 C-48.88883455 -12.09076183 -22.22936569 -14.46881791 0 0 Z " fill="#36A955" transform="translate(342.890625,227.21875)"/>
<path d="M0 0 C2.109375 1.78125 2.109375 1.78125 4.109375 5.78125 C-0.180625 10.07125 -4.470625 14.36125 -8.890625 18.78125 C-13.890625 16.78125 -13.890625 16.78125 -16.0390625 15.7109375 C-24.15150112 11.86820342 -33.1267508 11.0978574 -41.79296875 13.62890625 C-51.3105879 17.95509677 -57.38824646 24.90582495 -61.0546875 34.61328125 C-62.84220418 41.38746828 -62.39250589 47.99816501 -60.890625 54.78125 C-62.80626672 56.38665415 -64.72309412 57.990605 -66.640625 59.59375 C-67.17945313 60.04556641 -67.71828125 60.49738281 -68.2734375 60.96289062 C-76.43556113 67.78125 -76.43556113 67.78125 -78.890625 67.78125 C-85.1229936 52.28936233 -86.10311497 38.56187445 -79.671875 22.79296875 C-72.86173717 7.90525078 -61.61478171 -1.24051859 -46.65234375 -7.2734375 C-30.80470609 -12.69794714 -13.69440933 -8.91352087 0 0 Z " fill="#EA4537" transform="translate(342.890625,227.21875)"/>
<path d="M0 0 C16.5 0 33 0 50 0 C50 18.90339018 49.64414101 32.50304444 38 47 C36.68 47.99 35.36 48.98 34 50 C28.72 45.71 23.44 41.42 18 37 C19.98 34.69 21.96 32.38 24 30 C25.65 26.37 27.3 22.74 29 19 C19.43 19 9.86 19 0 19 C0 12.73 0 6.46 0 0 Z " fill="#4285F3" transform="translate(313,262)"/>
<path d="M0 0 C4.67199091 1.53093488 8.02170005 4.10757395 11.8125 7.125 C12.40998047 7.59292969 13.00746094 8.06085938 13.62304688 8.54296875 C15.08616792 9.69005565 16.54366297 10.84431234 18 12 C17.83757812 12.70125 17.67515625 13.4025 17.5078125 14.125 C16.97473732 17.14302565 16.86718656 19.93713337 16.875 23 C16.87242187 24.010625 16.86984375 25.02125 16.8671875 26.0625 C16.99173273 28.81714744 17.37889135 31.31838803 18 34 C16.08435828 35.60540415 14.16753088 37.209355 12.25 38.8125 C11.71117187 39.26431641 11.17234375 39.71613281 10.6171875 40.18164062 C2.45506387 47 2.45506387 47 0 47 C-6.61955789 30.54567039 -6.79330575 16.62883103 0 0 Z " fill="#FABC08" transform="translate(264,248)"/>
</svg>
